<svg width="1920" height="1080" viewBox="0 0 1920 1080" fill="none" xmlns="http://www.w3.org/2000/svg">
<g clip-path="url(#clip0_458_181)">
<g filter="url(#filter0_f_458_181)">
<path d="M1648.48 55.9639C1708.76 56.4177 1841.96 221.819 1841.5 282.173C1841.05 342.527 1709.54 288.957 1649.26 288.503C1588.99 288.049 1538.07 224.777 1538.53 164.423C1538.98 104.069 1588.21 55.51 1648.48 55.9639Z" fill="url(#paint0_linear_458_181)"/>
</g>
<g filter="url(#filter1_f_458_181)">
<path d="M238.145 1035.99C178.592 1045.29 20.3946 903.607 11.0819 843.974C1.76916 784.341 140.212 815.936 199.765 806.636C259.319 797.336 319.8 851.54 329.113 911.173C338.426 970.806 297.698 1026.69 238.145 1035.99Z" fill="url(#paint1_linear_458_181)"/>
</g>
<g filter="url(#filter2_f_458_181)">
<path d="M1581.2 785.522C1641.47 785.976 1774.67 951.377 1774.22 1011.73C1773.76 1072.09 1642.25 1018.52 1581.98 1018.06C1521.7 1017.61 1470.78 954.335 1471.24 893.981C1471.69 833.627 1520.92 785.068 1581.2 785.522Z" fill="url(#paint2_linear_458_181)"/>
</g>
<g filter="url(#filter3_f_458_181)">
<path d="M186.55 305.153C126.997 314.453 -31.2001 172.772 -40.5128 113.139C-49.8256 53.5063 88.6177 85.1014 148.171 75.8012C207.724 66.5009 268.206 120.705 277.518 180.338C286.831 239.971 246.103 295.853 186.55 305.153Z" fill="url(#paint3_linear_458_181)"/>
</g>
<g filter="url(#filter4_f_458_181)">
<path d="M1613.19 582.787C1556.55 614.925 1358.32 559.906 1331.92 513.389C1305.53 466.871 1452.49 437.062 1509.13 404.924C1565.78 372.787 1641.58 393.853 1667.97 440.37C1694.36 486.887 1669.84 550.65 1613.19 582.787Z" fill="url(#paint4_linear_458_181)"/>
</g>
<g filter="url(#filter5_f_458_181)">
<path d="M1245.32 926.026C1253.93 979.916 1104.41 1146.79 1042.47 1163.92C980.521 1181.06 1015.63 1048.2 1007.02 994.307C998.406 940.418 1055.61 876.614 1117.55 859.478C1179.5 842.342 1236.7 872.137 1245.32 926.026Z" fill="url(#paint5_linear_458_181)"/>
</g>
<g filter="url(#filter6_f_458_181)">
<path d="M187.767 510.393C238.468 469.517 442.986 491.751 476.554 533.388C510.122 575.024 369.921 628.209 319.219 669.085C268.518 709.961 190.311 701.431 156.744 659.795C123.176 618.158 137.066 551.269 187.767 510.393Z" fill="url(#paint6_linear_458_181)"/>
</g>
<g filter="url(#filter7_f_458_181)">
<path d="M495.286 112.175C478.069 60.3883 598.627 -128.469 656.987 -155.398C715.347 -182.328 702.185 -45.5342 719.401 6.25262C736.617 58.0394 690.488 130.255 632.128 157.184C573.768 184.113 512.502 163.962 495.286 112.175Z" fill="url(#paint7_linear_458_181)"/>
</g>
<g filter="url(#filter8_f_458_181)">
<path d="M938.948 671.974C882.303 704.111 684.073 649.092 657.682 602.575C631.29 556.058 778.247 526.248 834.892 494.111C891.536 461.973 967.334 483.039 993.726 529.557C1020.12 576.074 995.592 639.836 938.948 671.974Z" fill="url(#paint8_linear_458_181)"/>
</g>
<g filter="url(#filter9_f_458_181)">
<path d="M838.709 313.333C889.411 272.457 1093.93 294.691 1127.5 336.328C1161.06 377.964 1020.86 431.149 970.162 472.025C919.46 512.901 841.254 504.371 807.686 462.734C774.118 421.098 788.008 354.209 838.709 313.333Z" fill="url(#paint9_linear_458_181)"/>
</g>
<g filter="url(#filter10_f_458_181)">
<path d="M1712.96 387.366C1659.07 395.98 1492.2 246.465 1475.06 184.518C1457.92 122.571 1590.79 157.684 1644.68 149.07C1698.57 140.456 1762.37 197.657 1779.51 259.604C1796.64 321.551 1766.85 378.752 1712.96 387.366Z" fill="url(#paint10_linear_458_181)"/>
</g>
<g filter="url(#filter11_f_458_181)">
<path d="M120.919 719.376C172.705 702.16 361.563 822.718 388.492 881.078C415.421 939.438 278.628 926.275 226.841 943.492C175.054 960.708 102.839 914.579 75.9099 856.219C48.9807 797.859 69.1319 736.593 120.919 719.376Z" fill="url(#paint11_linear_458_181)"/>
</g>
<g filter="url(#filter12_f_458_181)">
<path d="M901.768 343.617C953.555 326.4 1142.41 446.958 1169.34 505.318C1196.27 563.678 1059.48 550.516 1007.69 567.732C955.904 584.948 883.689 538.819 856.759 480.459C829.83 422.099 849.981 360.833 901.768 343.617Z" fill="url(#paint12_linear_458_181)"/>
</g>
</g>
<defs>
<filter id="filter0_f_458_181" x="1338.38" y="-144.183" width="703.267" height="655.182" filterUnits="userSpaceOnUse" color-interpolation-filters="sRGB">
<feFlood flood-opacity="0" result="BackgroundImageFix"/>
<feBlend mode="normal" in="SourceGraphic" in2="BackgroundImageFix" result="shape"/>
<feGaussianBlur stdDeviation="100.072" result="effect1_foregroundBlur_458_181"/>
</filter>
<filter id="filter1_f_458_181" x="-189.509" y="605.446" width="720.093" height="631.122" filterUnits="userSpaceOnUse" color-interpolation-filters="sRGB">
<feFlood flood-opacity="0" result="BackgroundImageFix"/>
<feBlend mode="normal" in="SourceGraphic" in2="BackgroundImageFix" result="shape"/>
<feGaussianBlur stdDeviation="100.072" result="effect1_foregroundBlur_458_181"/>
</filter>
<filter id="filter2_f_458_181" x="1271.09" y="585.375" width="703.267" height="655.182" filterUnits="userSpaceOnUse" color-interpolation-filters="sRGB">
<feFlood flood-opacity="0" result="BackgroundImageFix"/>
<feBlend mode="normal" in="SourceGraphic" in2="BackgroundImageFix" result="shape"/>
<feGaussianBlur stdDeviation="100.072" result="effect1_foregroundBlur_458_181"/>
</filter>
<filter id="filter3_f_458_181" x="-241.104" y="-125.389" width="720.093" height="631.122" filterUnits="userSpaceOnUse" color-interpolation-filters="sRGB">
<feFlood flood-opacity="0" result="BackgroundImageFix"/>
<feBlend mode="normal" in="SourceGraphic" in2="BackgroundImageFix" result="shape"/>
<feGaussianBlur stdDeviation="100.072" result="effect1_foregroundBlur_458_181"/>
</filter>
<filter id="filter4_f_458_181" x="1008.07" y="68.7766" width="991.23" height="844.329" filterUnits="userSpaceOnUse" color-interpolation-filters="sRGB">
<feFlood flood-opacity="0" result="BackgroundImageFix"/>
<feBlend mode="normal" in="SourceGraphic" in2="BackgroundImageFix" result="shape"/>
<feGaussianBlur stdDeviation="160.358" result="effect1_foregroundBlur_458_181"/>
</filter>
<filter id="filter5_f_458_181" x="684.029" y="533.921" width="882.36" height="952.233" filterUnits="userSpaceOnUse" color-interpolation-filters="sRGB">
<feFlood flood-opacity="0" result="BackgroundImageFix"/>
<feBlend mode="normal" in="SourceGraphic" in2="BackgroundImageFix" result="shape"/>
<feGaussianBlur stdDeviation="160.358" result="effect1_foregroundBlur_458_181"/>
</filter>
<filter id="filter6_f_458_181" x="-182.281" y="168.01" width="984.682" height="848.446" filterUnits="userSpaceOnUse" color-interpolation-filters="sRGB">
<feFlood flood-opacity="0" result="BackgroundImageFix"/>
<feBlend mode="normal" in="SourceGraphic" in2="BackgroundImageFix" result="shape"/>
<feGaussianBlur stdDeviation="160.358" result="effect1_foregroundBlur_458_181"/>
</filter>
<filter id="filter7_f_458_181" x="172.905" y="-479.589" width="870.862" height="969.43" filterUnits="userSpaceOnUse" color-interpolation-filters="sRGB">
<feFlood flood-opacity="0" result="BackgroundImageFix"/>
<feBlend mode="normal" in="SourceGraphic" in2="BackgroundImageFix" result="shape"/>
<feGaussianBlur stdDeviation="160.358" result="effect1_foregroundBlur_458_181"/>
</filter>
<filter id="filter8_f_458_181" x="333.824" y="157.963" width="991.23" height="844.329" filterUnits="userSpaceOnUse" color-interpolation-filters="sRGB">
<feFlood flood-opacity="0" result="BackgroundImageFix"/>
<feBlend mode="normal" in="SourceGraphic" in2="BackgroundImageFix" result="shape"/>
<feGaussianBlur stdDeviation="160.358" result="effect1_foregroundBlur_458_181"/>
</filter>
<filter id="filter9_f_458_181" x="468.661" y="-29.05" width="984.682" height="848.446" filterUnits="userSpaceOnUse" color-interpolation-filters="sRGB">
<feFlood flood-opacity="0" result="BackgroundImageFix"/>
<feBlend mode="normal" in="SourceGraphic" in2="BackgroundImageFix" result="shape"/>
<feGaussianBlur stdDeviation="160.358" result="effect1_foregroundBlur_458_181"/>
</filter>
<filter id="filter10_f_458_181" x="1152.83" y="-173.922" width="952.234" height="882.36" filterUnits="userSpaceOnUse" color-interpolation-filters="sRGB">
<feFlood flood-opacity="0" result="BackgroundImageFix"/>
<feBlend mode="normal" in="SourceGraphic" in2="BackgroundImageFix" result="shape"/>
<feGaussianBlur stdDeviation="160.358" result="effect1_foregroundBlur_458_181"/>
</filter>
<filter id="filter11_f_458_181" x="-256.748" y="396.995" width="969.431" height="870.862" filterUnits="userSpaceOnUse" color-interpolation-filters="sRGB">
<feFlood flood-opacity="0" result="BackgroundImageFix"/>
<feBlend mode="normal" in="SourceGraphic" in2="BackgroundImageFix" result="shape"/>
<feGaussianBlur stdDeviation="160.358" result="effect1_foregroundBlur_458_181"/>
</filter>
<filter id="filter12_f_458_181" x="524.102" y="21.2351" width="969.431" height="870.862" filterUnits="userSpaceOnUse" color-interpolation-filters="sRGB">
<feFlood flood-opacity="0" result="BackgroundImageFix"/>
<feBlend mode="normal" in="SourceGraphic" in2="BackgroundImageFix" result="shape"/>
<feGaussianBlur stdDeviation="160.358" result="effect1_foregroundBlur_458_181"/>
</filter>
<linearGradient id="paint0_linear_458_181" x1="1538.39" y1="182.014" x2="1842.24" y2="184.302" gradientUnits="userSpaceOnUse">
<stop stop-color="#65FF57"/>
<stop offset="1" stop-color="#00C2FF"/>
</linearGradient>
<linearGradient id="paint1_linear_458_181" x1="326.399" y1="893.792" x2="26.1836" y2="940.676" gradientUnits="userSpaceOnUse">
<stop stop-color="#65FF57"/>
<stop offset="1" stop-color="#00C2FF"/>
</linearGradient>
<linearGradient id="paint2_linear_458_181" x1="1471.11" y1="911.572" x2="1774.95" y2="913.86" gradientUnits="userSpaceOnUse">
<stop stop-color="#65FF57"/>
<stop offset="1" stop-color="#14FF00"/>
</linearGradient>
<linearGradient id="paint3_linear_458_181" x1="274.804" y1="162.957" x2="-25.4111" y2="209.841" gradientUnits="userSpaceOnUse">
<stop stop-color="#65FF57"/>
<stop offset="1" stop-color="#14FF00"/>
</linearGradient>
<linearGradient id="paint4_linear_458_181" x1="1660.28" y1="426.812" x2="1374.72" y2="588.822" gradientUnits="userSpaceOnUse">
<stop stop-color="#25AF41"/>
<stop offset="1" stop-color="#61C4E4"/>
</linearGradient>
<linearGradient id="paint5_linear_458_181" x1="1099.5" y1="864.472" x2="1172.39" y2="1127.98" gradientUnits="userSpaceOnUse">
<stop stop-color="#114990"/>
<stop offset="1" stop-color="#65FF57"/>
</linearGradient>
<linearGradient id="paint6_linear_458_181" x1="166.527" y1="671.93" x2="422.12" y2="465.869" gradientUnits="userSpaceOnUse">
<stop stop-color="#25AF41"/>
<stop offset="1" stop-color="#61C4E4"/>
</linearGradient>
<linearGradient id="paint7_linear_458_181" x1="649.138" y1="149.335" x2="534.586" y2="-98.9189" gradientUnits="userSpaceOnUse">
<stop stop-color="#114990"/>
<stop offset="1" stop-color="#65FF57"/>
</linearGradient>
<linearGradient id="paint8_linear_458_181" x1="986.033" y1="515.998" x2="700.479" y2="678.009" gradientUnits="userSpaceOnUse">
<stop stop-color="#25AF41"/>
<stop offset="1" stop-color="#FF00B8" stop-opacity="0.09"/>
</linearGradient>
<linearGradient id="paint9_linear_458_181" x1="817.47" y1="474.87" x2="1073.06" y2="268.809" gradientUnits="userSpaceOnUse">
<stop stop-color="#25AF41"/>
<stop offset="1" stop-color="#FF00B8" stop-opacity="0.09"/>
</linearGradient>
<linearGradient id="paint10_linear_458_181" x1="1774.51" y1="241.549" x2="1511" y2="314.442" gradientUnits="userSpaceOnUse">
<stop stop-color="#304055"/>
<stop offset="1" stop-color="#FF9E00" stop-opacity="0.63"/>
</linearGradient>
<linearGradient id="paint11_linear_458_181" x1="83.7588" y1="873.229" x2="332.013" y2="758.677" gradientUnits="userSpaceOnUse">
<stop stop-color="#304055"/>
<stop offset="1" stop-color="#FF9E00" stop-opacity="0.63"/>
</linearGradient>
<linearGradient id="paint12_linear_458_181" x1="864.608" y1="497.469" x2="1112.86" y2="382.917" gradientUnits="userSpaceOnUse">
<stop stop-color="#14FF00"/>
<stop offset="1" stop-color="#00C2FF"/>
</linearGradient>
<clipPath id="clip0_458_181">
<rect width="1920" height="1080" fill="white"/>
</clipPath>
</defs>
</svg>
