<svg width="270" height="62" viewBox="0 0 270 62" fill="none" xmlns="http://www.w3.org/2000/svg">
<path d="M41.5 3H3V58L41.5 42.7223V34.1667V23.4111V3Z" stroke="url(#paint0_radial_454_306)" stroke-width="4.48125"/>
<path d="M14.7334 10.4556V44.4334M30.1334 10.4556V24.8778M30.1334 24.8778H19.5001M30.1334 24.8778V39.0556" stroke="#01081F" stroke-width="3.50706"/>
<path d="M73.2302 40V15.2097H77.8341V40H73.2302ZM57.329 40V15.2097H61.9329V40H57.329ZM59.2414 29.8006V25.48H75.4613V29.8006H59.2414ZM92.4808 40.3541C90.5212 40.3541 88.7859 39.941 87.2749 39.1146C85.7875 38.2883 84.6188 37.1668 83.7688 35.7502C82.9425 34.31 82.5293 32.6692 82.5293 30.8276C82.5293 29.3638 82.7654 28.0298 83.2376 26.8257C83.7098 25.6216 84.3591 24.5828 85.1854 23.7092C86.0354 22.8121 87.0388 22.1274 88.1957 21.6552C89.3761 21.1594 90.6629 20.9115 92.0559 20.9115C93.2836 20.9115 94.4286 21.1476 95.4911 21.6198C96.5535 22.092 97.4743 22.7412 98.2534 23.5676C99.0326 24.3703 99.6228 25.3383 100.024 26.4716C100.449 27.5812 100.65 28.7972 100.626 30.1193L100.591 31.6421H85.4687L84.6542 28.6673H96.9431L96.3765 29.2693V28.4902C96.3056 27.7583 96.0695 27.1209 95.6682 26.5778C95.2668 26.0112 94.7474 25.5744 94.1099 25.2675C93.4961 24.9369 92.8114 24.7717 92.0559 24.7717C90.899 24.7717 89.9192 24.996 89.1164 25.4446C88.3373 25.8931 87.7471 26.5424 87.3457 27.3924C86.9443 28.2187 86.7437 29.2575 86.7437 30.5089C86.7437 31.713 86.9916 32.7636 87.4874 33.6608C88.0068 34.5579 88.7269 35.2544 89.6477 35.7502C90.5921 36.2224 91.6899 36.4585 92.9412 36.4585C93.8148 36.4585 94.6175 36.3169 95.3494 36.0336C96.0813 35.7502 96.8723 35.2426 97.7222 34.5107L99.8825 37.521C99.245 38.1112 98.5131 38.6188 97.6868 39.0438C96.8841 39.4452 96.0341 39.7639 95.1369 40C94.2398 40.2361 93.3544 40.3541 92.4808 40.3541ZM111.532 40.3541C109.997 40.3541 108.604 39.9292 107.353 39.0792C106.101 38.2293 105.098 37.0724 104.343 35.6086C103.587 34.1448 103.209 32.4803 103.209 30.6151C103.209 28.7499 103.587 27.0854 104.343 25.6216C105.098 24.1578 106.125 23.0128 107.424 22.1864C108.722 21.3601 110.186 20.9469 111.815 20.9469C112.759 20.9469 113.621 21.0886 114.4 21.3719C115.179 21.6316 115.864 22.0093 116.454 22.5051C117.045 23.0009 117.529 23.5676 117.906 24.205C118.308 24.8425 118.579 25.5272 118.721 26.2591L117.765 26.0112V21.3365H122.156V40H117.729V35.5377L118.756 35.3607C118.591 35.9981 118.284 36.6238 117.836 37.2377C117.411 37.8279 116.868 38.3591 116.206 38.8313C115.569 39.2799 114.849 39.6459 114.046 39.9292C113.267 40.2125 112.429 40.3541 111.532 40.3541ZM112.736 36.4939C113.751 36.4939 114.648 36.246 115.427 35.7502C116.206 35.2544 116.809 34.5697 117.233 33.6962C117.682 32.799 117.906 31.772 117.906 30.6151C117.906 29.4818 117.682 28.4784 117.233 27.6049C116.809 26.7313 116.206 26.0466 115.427 25.5508C114.648 25.055 113.751 24.8071 112.736 24.8071C111.721 24.8071 110.823 25.055 110.044 25.5508C109.289 26.0466 108.699 26.7313 108.274 27.6049C107.849 28.4784 107.636 29.4818 107.636 30.6151C107.636 31.772 107.849 32.799 108.274 33.6962C108.699 34.5697 109.289 35.2544 110.044 35.7502C110.823 36.246 111.721 36.4939 112.736 36.4939ZM127.242 40V13.7931H131.633V40H127.242ZM138.667 40V16.5909H143.023V40H138.667ZM134.983 25.3737V21.3365H147.095V25.3737H134.983ZM150.413 40V13.7931H154.733V25.1612L153.919 25.5862C154.155 24.7363 154.615 23.9689 155.3 23.2843C155.985 22.576 156.799 22.0093 157.743 21.5844C158.688 21.1594 159.656 20.9469 160.647 20.9469C162.064 20.9469 163.245 21.2302 164.189 21.7968C165.157 22.3635 165.877 23.2134 166.349 24.3467C166.845 25.48 167.093 26.8966 167.093 28.5965V40H162.737V28.9152C162.737 27.9708 162.607 27.1917 162.347 26.5778C162.088 25.9404 161.686 25.48 161.143 25.1967C160.6 24.8897 159.939 24.7481 159.16 24.7717C158.523 24.7717 157.932 24.8779 157.389 25.0904C156.87 25.2793 156.41 25.5626 156.008 25.9404C155.63 26.2945 155.323 26.7077 155.087 27.1799C154.875 27.6521 154.769 28.1715 154.769 28.7381V40H152.608C152.183 40 151.782 40 151.404 40C151.05 40 150.72 40 150.413 40ZM183.291 40.3541C181.496 40.3541 179.856 40.0472 178.368 39.4334C176.881 38.8195 175.594 37.9459 174.508 36.8127C173.422 35.6558 172.572 34.2982 171.958 32.74C171.368 31.1581 171.073 29.4346 171.073 27.5694C171.073 25.7751 171.391 24.1106 172.029 22.576C172.666 21.0413 173.552 19.6956 174.685 18.5387C175.818 17.3818 177.14 16.4846 178.651 15.8472C180.162 15.2097 181.803 14.891 183.574 14.891C184.778 14.891 185.947 15.0681 187.08 15.4222C188.213 15.7763 189.252 16.2722 190.197 16.9096C191.141 17.5235 191.932 18.2436 192.569 19.0699L189.63 22.2927C189.016 21.6552 188.379 21.124 187.718 20.699C187.08 20.2504 186.407 19.9199 185.699 19.7074C185.014 19.4713 184.306 19.3532 183.574 19.3532C182.488 19.3532 181.461 19.5539 180.493 19.9553C179.549 20.3566 178.722 20.9233 178.014 21.6552C177.329 22.3871 176.786 23.2607 176.385 24.2759C175.984 25.2675 175.783 26.3771 175.783 27.6049C175.783 28.8562 175.972 29.9894 176.349 31.0047C176.751 32.0199 177.306 32.8935 178.014 33.6254C178.746 34.3573 179.608 34.9239 180.599 35.3253C181.614 35.703 182.724 35.8919 183.928 35.8919C184.707 35.8919 185.463 35.7857 186.195 35.5732C186.927 35.3607 187.6 35.0656 188.213 34.6878C188.851 34.2864 189.429 33.826 189.949 33.3066L192.215 36.9543C191.649 37.5918 190.893 38.1702 189.949 38.6897C189.004 39.2091 187.942 39.6222 186.761 39.9292C185.605 40.2125 184.448 40.3541 183.291 40.3541ZM196.203 40V13.7931H200.523V25.1612L199.709 25.5862C199.945 24.7363 200.405 23.9689 201.09 23.2843C201.775 22.576 202.589 22.0093 203.534 21.5844C204.478 21.1594 205.446 20.9469 206.438 20.9469C207.854 20.9469 209.035 21.2302 209.979 21.7968C210.947 22.3635 211.667 23.2134 212.139 24.3467C212.635 25.48 212.883 26.8966 212.883 28.5965V40H208.527V28.9152C208.527 27.9708 208.397 27.1917 208.137 26.5778C207.878 25.9404 207.476 25.48 206.933 25.1967C206.39 24.8897 205.729 24.7481 204.95 24.7717C204.313 24.7717 203.722 24.8779 203.179 25.0904C202.66 25.2793 202.2 25.5626 201.798 25.9404C201.421 26.2945 201.114 26.7077 200.877 27.1799C200.665 27.6521 200.559 28.1715 200.559 28.7381V40H198.398C197.973 40 197.572 40 197.194 40C196.84 40 196.51 40 196.203 40ZM224.831 40.3541C223.296 40.3541 221.903 39.9292 220.652 39.0792C219.401 38.2293 218.397 37.0724 217.642 35.6086C216.886 34.1448 216.509 32.4803 216.509 30.6151C216.509 28.7499 216.886 27.0854 217.642 25.6216C218.397 24.1578 219.424 23.0128 220.723 22.1864C222.022 21.3601 223.485 20.9469 225.114 20.9469C226.059 20.9469 226.921 21.0886 227.7 21.3719C228.479 21.6316 229.163 22.0093 229.754 22.5051C230.344 23.0009 230.828 23.5676 231.206 24.205C231.607 24.8425 231.879 25.5272 232.02 26.2591L231.064 26.0112V21.3365H235.455V40H231.029V35.5377L232.056 35.3607C231.89 35.9981 231.583 36.6238 231.135 37.2377C230.71 37.8279 230.167 38.3591 229.506 38.8313C228.868 39.2799 228.148 39.6459 227.346 39.9292C226.566 40.2125 225.728 40.3541 224.831 40.3541ZM226.035 36.4939C227.05 36.4939 227.948 36.246 228.727 35.7502C229.506 35.2544 230.108 34.5697 230.533 33.6962C230.981 32.799 231.206 31.772 231.206 30.6151C231.206 29.4818 230.981 28.4784 230.533 27.6049C230.108 26.7313 229.506 26.0466 228.727 25.5508C227.948 25.055 227.05 24.8071 226.035 24.8071C225.02 24.8071 224.123 25.055 223.344 25.5508C222.588 26.0466 221.998 26.7313 221.573 27.6049C221.148 28.4784 220.935 29.4818 220.935 30.6151C220.935 31.772 221.148 32.799 221.573 33.6962C221.998 34.5697 222.588 35.2544 223.344 35.7502C224.123 36.246 225.02 36.4939 226.035 36.4939ZM241.001 40V21.3365H245.357V40H241.001ZM243.126 17.37C242.253 17.37 241.568 17.1575 241.072 16.7325C240.6 16.284 240.364 15.6583 240.364 14.8556C240.364 14.1001 240.612 13.4862 241.108 13.014C241.604 12.5418 242.276 12.3057 243.126 12.3057C244.024 12.3057 244.708 12.53 245.18 12.9786C245.676 13.4036 245.924 14.0292 245.924 14.8556C245.924 15.5875 245.676 16.1895 245.18 16.6617C244.685 17.1339 244 17.37 243.126 17.37ZM250.881 40V21.3365H255.131L255.202 25.1612L254.387 25.5862C254.623 24.7363 255.084 23.9689 255.768 23.2843C256.453 22.576 257.268 22.0093 258.212 21.5844C259.156 21.1594 260.124 20.9469 261.116 20.9469C262.533 20.9469 263.713 21.2302 264.657 21.7968C265.625 22.3635 266.345 23.2134 266.818 24.3467C267.314 25.48 267.561 26.8966 267.561 28.5965V40H263.205V28.9152C263.205 27.9708 263.076 27.1917 262.816 26.5778C262.556 25.9404 262.155 25.48 261.612 25.1967C261.069 24.8897 260.408 24.7481 259.629 24.7717C258.991 24.7717 258.401 24.8779 257.858 25.0904C257.338 25.2793 256.878 25.5626 256.477 25.9404C256.099 26.2945 255.792 26.7077 255.556 27.1799C255.343 27.6521 255.237 28.1715 255.237 28.7381V40H253.077C252.652 40 252.25 40 251.873 40C251.519 40 251.188 40 250.881 40Z" fill="#090909"/>
<defs>
<radialGradient id="paint0_radial_454_306" cx="0" cy="0" r="1" gradientUnits="userSpaceOnUse" gradientTransform="translate(29.6445 24.8778) rotate(109.523) scale(79.3629 36.2309)">
<stop/>
<stop offset="1" stop-color="#00C2FF"/>
</radialGradient>
</defs>
</svg>
