<svg width="98" height="98" viewBox="0 0 98 98" fill="none" xmlns="http://www.w3.org/2000/svg">
<rect x="0.98" y="0.98" width="96.04" height="96.04" rx="48.02" fill="white" stroke="#929292" stroke-width="1.96"/>
<path d="M49.1094 1.21875C22.6537 1.21875 1.21875 22.6537 1.21875 49.1094C1.21875 75.5651 22.6537 97 49.1094 97C75.5651 97 97 75.5651 97 49.1094C97 22.6537 75.5651 1.21875 49.1094 1.21875ZM49.1094 19.7571C58.4944 19.7571 66.1028 27.3655 66.1028 36.7505C66.1028 46.1355 58.4944 53.7439 49.1094 53.7439C39.7244 53.7439 32.1159 46.1355 32.1159 36.7505C32.1159 27.3655 39.7244 19.7571 49.1094 19.7571ZM49.1094 86.186C37.774 86.186 27.6165 81.0493 20.8191 73.0161C24.4496 66.1801 31.5559 61.4682 39.8402 61.4682C40.3037 61.4682 40.7671 61.5455 41.2113 61.6807C43.7217 62.4917 46.3479 63.0131 49.1094 63.0131C51.8708 63.0131 54.5164 62.4917 57.0075 61.6807C57.4516 61.5455 57.9151 61.4682 58.3785 61.4682C66.6628 61.4682 73.7692 66.1801 77.3996 73.0161C70.6022 81.0493 60.4448 86.186 49.1094 86.186Z" fill="#150F3A"/>
</svg>
